<svg width="18" height="18" viewBox="0 0 18 18" fill="none" xmlns="http://www.w3.org/2000/svg">
<g id="award-line">
<path id="Vector" d="M12.75 11.434V16.5877C12.75 16.7947 12.5821 16.9627 12.375 16.9627C12.307 16.9627 12.2404 16.9442 12.1821 16.9093L9 15L5.81794 16.9093C5.64034 17.0158 5.41 16.9582 5.30344 16.7806C5.26847 16.7223 5.25 16.6556 5.25 16.5877V11.434C3.8783 10.3345 3 8.6448 3 6.75C3 3.43629 5.68629 0.75 9 0.75C12.3137 0.75 15 3.43629 15 6.75C15 8.6448 14.1217 10.3345 12.75 11.434ZM6.75 12.3139V14.6007L9 13.2507L11.25 14.6007V12.3139C10.5552 12.5951 9.79567 12.75 9 12.75C8.20433 12.75 7.44482 12.5951 6.75 12.3139ZM9 11.25C11.4853 11.25 13.5 9.23527 13.5 6.75C13.5 4.26472 11.4853 2.25 9 2.25C6.51472 2.25 4.5 4.26472 4.5 6.75C4.5 9.23527 6.51472 11.25 9 11.25Z" fill="white"/>
</g>
</svg>
